<?xml version="1.0" encoding="UTF-8"?><svg id="Layer_1" xmlns="http://www.w3.org/2000/svg" viewBox="0 0 48 48"><defs><style>.cls-1{fill:#24282e;}.cls-2{fill:#0c1016;}.cls-3{fill:#404596;}.cls-4{fill:#7482bf;}</style></defs><path class="cls-3" d="M11.01,24.93c-.85,0-1.55-.69-1.55-1.55v-6.18c0-.85,.69-1.55,1.55-1.55h25.97c.85,0,1.55,.69,1.55,1.55v6.18c0,.85-.69,1.55-1.55,1.55H11.01Z"/><path class="cls-4" d="M24,47.19c-3.19,0-6.08-1.36-6.58-1.6l-5.48-9.3v-7.46l-1.24-1.24V6.78C14.91,.91,23.91,.81,24,.81c.09,0,9.09,.1,13.29,5.97V27.58l-1.24,1.24v7.46l-5.48,9.3c-.5,.25-3.39,1.6-6.58,1.6Z"/><path class="cls-1" d="M24,1.12c.19,0,8.88,.14,12.99,5.76V27.45l-1.06,1.06-.18,.18v7.51l-5.39,9.15c-.66,.32-3.37,1.53-6.36,1.53s-5.7-1.21-6.36-1.53l-5.39-9.15v-7.51l-.18-.18-1.06-1.06V6.88C15.12,1.26,23.81,1.12,24,1.12m0-.62s-9.28,.03-13.61,6.18V27.71l1.24,1.24v7.42l5.57,9.45s3.19,1.68,6.8,1.68,6.8-1.68,6.8-1.68l5.57-9.45v-7.42l1.24-1.24V6.68C33.28,.53,24,.5,24,.5h0Z"/><path class="cls-3" d="M37.29,22.72V10.27l-.08-.09c-2.09-2.28-7.95-3.74-8.19-3.8l-.34-.08-1.25,11.29-3.42,1.14-3.42-1.14-1.25-11.29-.34,.08c-.25,.06-6.1,1.52-8.19,3.8l-.08,.09v-3.49C14.91,.91,23.91,.81,24,.81c.09,0,9.09,.1,13.29,5.97v15.94Z"/><path class="cls-2" d="M24,1.12c.19,0,8.88,.14,12.99,5.76v2.66c-2.43-2.09-7.66-3.4-7.89-3.45l-.68-.17-.08,.7-1.19,10.74-3.14,1.05-3.14-1.05-1.19-10.74-.08-.7-.68,.17c-.24,.06-5.46,1.36-7.89,3.45v-2.66C15.12,1.26,23.81,1.12,24,1.12m0-.62s-9.28,.03-13.61,6.18V27.71l.62-4.95V10.39c2.06-2.24,8.04-3.71,8.04-3.71l1.24,11.13,3.71,1.24,3.71-1.24,1.24-11.13s5.98,1.47,8.04,3.71v12.37l.62,4.95V6.68C33.28,.53,24,.5,24,.5h0Z"/><path class="cls-3" d="M24,47.19c-3.19,0-6.08-1.36-6.58-1.6l-.15-.25h3.17l2.01-2.47h3.11l2.01,2.47h3.13l2.91-4.92-1.57-1.25c-.52-1.09-.43-2.37,.25-3.37l3.78-5.81v6.29l-5.48,9.3c-.5,.25-3.39,1.6-6.58,1.6Zm-12.06-10.91v-6.29l3.78,5.8c.68,1.01,.77,2.29,.25,3.38l-1.57,1.22,1.37,2.4-3.82-6.5Z"/><path class="cls-2" d="M12.25,31.03l3.22,4.94c.6,.89,.7,2.03,.25,3l-1.26,.98-2.21-3.75v-5.17m23.5,0v5.17l-2.22,3.77-1.25-.99c-.44-.97-.35-2.11,.26-3.01l3.21-4.93m-10.34,12.14l1.82,2.25,.19,.23h2.28c-1.14,.47-3.34,1.24-5.7,1.24s-4.56-.76-5.7-1.24h2.28l.19-.23,1.82-2.25h2.81m10.96-14.22l-4.35,6.68c-.75,1.12-.84,2.55-.24,3.75l1.41,1.12-2.68,4.53h-2.81l-2.01-2.47h-3.4l-2.01,2.47h-2.89l-2.6-4.56,1.41-1.1c.61-1.2,.52-2.63-.24-3.75l-4.35-6.68v7.42l5.57,9.45s3.19,1.68,6.8,1.68,6.8-1.68,6.8-1.68l5.57-9.45v-7.42h0Z"/><path class="cls-2" d="M25.24,25.24l8.66-1.24,1.24,1.24-2.47,2.47h-4.95l-2.47-2.47Z"/><path class="cls-2" d="M22.76,25.24l-8.66-1.24-1.24,1.24,2.47,2.47h4.95l2.47-2.47Z"/><path class="cls-2" d="M37.06,23.38h-3.17l-8.36,1.25-3.23,.02-8.19-1.27h-3.17l-.08,.62h3.25l8.03,1.24h3.57l8.19-1.24h3.25l-.08-.62Zm-18.01,18.35l1.57-2.27h6.75l1.57,2.27,2.45-3.87c-.02-.51,.06-1.03,.26-1.51l-2.68,4.25-1.26-1.76h-7.42l-1.26,1.76-2.68-4.25c.19,.48,.28,1,.26,1.51l2.45,3.87Z"/></svg>