<?xml version="1.0" encoding="UTF-8"?><svg id="Layer_2" xmlns="http://www.w3.org/2000/svg" viewBox="0 0 147.1 33.97"><defs><style>.cls-1{fill:#24282e;}.cls-2{fill:#0c1016;}.cls-3{fill:#404596;}.cls-4{fill:#7482bf;}</style></defs><g id="Layer_1-2"><g><path class="cls-3" d="M1.12,17.66c-.62,0-1.12-.5-1.12-1.12v-4.47c0-.62,.5-1.12,1.12-1.12H19.89c.62,0,1.12,.5,1.12,1.12v4.47c0,.62-.5,1.12-1.12,1.12H1.12Z"/><path class="cls-4" d="M10.51,33.75c-2.31,0-4.4-.98-4.76-1.16l-3.96-6.72v-5.4l-.89-.89V4.54C3.93,.29,10.44,.22,10.51,.22c.06,0,6.57,.07,9.61,4.32v15.04l-.89,.89v5.4l-3.96,6.72c-.36,.18-2.45,1.16-4.76,1.16Z"/><path class="cls-1" d="M10.51,.45c.13,0,6.42,.1,9.39,4.17v14.87l-.76,.76-.13,.13v5.43l-3.89,6.61c-.48,.23-2.44,1.11-4.6,1.11s-4.12-.88-4.6-1.11l-3.89-6.61v-5.43l-.13-.13-.76-.76V4.61C4.09,.55,10.37,.45,10.51,.45m0-.45S3.8,.02,.67,4.47v15.2l.89,.89v5.36l4.02,6.83s2.3,1.21,4.92,1.21,4.92-1.21,4.92-1.21l4.02-6.83v-5.36l.89-.89V4.47C17.22,.02,10.51,0,10.51,0h0Z"/><path class="cls-3" d="M20.11,16.07V7.07l-.06-.06c-1.51-1.65-5.74-2.7-5.92-2.75l-.25-.06-.91,8.16-2.48,.83-2.48-.83-.91-8.16-.25,.06c-.18,.04-4.41,1.1-5.92,2.75l-.06,.06v-2.52C3.93,.3,10.44,.22,10.51,.22c.06,0,6.57,.07,9.61,4.32v11.54h0Z"/><path class="cls-2" d="M10.51,.45c.13,0,6.42,.1,9.39,4.17v1.92c-1.76-1.51-5.53-2.46-5.7-2.5l-.49-.12-.06,.51-.86,7.76-2.27,.76-2.27-.76-.86-7.76-.06-.51-.49,.12c-.17,.04-3.95,.98-5.7,2.5v-1.92C4.09,.55,10.37,.45,10.51,.45m0-.45S3.8,.02,.67,4.47v15.2l.45-3.58V7.15c1.49-1.62,5.81-2.68,5.81-2.68l.89,8.05,2.68,.89,2.68-.89,.89-8.05s4.33,1.06,5.81,2.68v8.94l.45,3.58V4.47C17.22,.02,10.51,0,10.51,0h0Z"/><path class="cls-3" d="M10.51,33.75c-2.31,0-4.4-.98-4.76-1.16l-.11-.18h2.29l1.45-1.79h2.25l1.45,1.79h2.26l2.1-3.56-1.14-.9c-.38-.78-.31-1.71,.18-2.44l2.73-4.2v4.55l-3.96,6.72c-.36,.18-2.45,1.16-4.76,1.16ZM1.79,25.87v-4.55l2.73,4.19c.49,.73,.56,1.66,.18,2.44l-1.13,.88,.99,1.73-2.76-4.7Z"/><path class="cls-2" d="M2.01,22.07l2.32,3.57c.43,.64,.5,1.47,.18,2.17l-.91,.71-1.6-2.71v-3.74m16.99,0v3.74l-1.6,2.72-.9-.72c-.32-.7-.25-1.53,.19-2.18l2.32-3.56m-7.48,8.78l1.32,1.62,.13,.16h1.65c-.82,.34-2.41,.89-4.12,.89s-3.3-.55-4.12-.89h1.65l.13-.16,1.32-1.62h2.03m7.92-10.28l-3.14,4.83c-.54,.81-.61,1.84-.17,2.71l1.02,.81-1.94,3.28h-2.03l-1.45-1.79h-2.46l-1.45,1.79h-2.09l-1.88-3.3,1.02-.79c.44-.87,.37-1.9-.17-2.71l-3.14-4.83v5.36l4.02,6.83s2.3,1.21,4.92,1.21,4.92-1.21,4.92-1.21l4.02-6.83v-5.36h0Z"/><path class="cls-2" d="M11.4,17.88l6.26-.89,.89,.89-1.79,1.79h-3.58l-1.79-1.79Z"/><path class="cls-2" d="M9.61,17.88l-6.26-.89-.89,.89,1.79,1.79h3.58l1.79-1.79Z"/><path class="cls-2" d="M19.95,16.54h-2.29l-6.04,.91h-2.34l-5.92-.91H1.06l-.06,.45H3.35l5.8,.89h2.58l5.92-.89h2.35l-.06-.45ZM6.93,29.8l1.14-1.64h4.88l1.14,1.64,1.77-2.8c-.02-.37,.05-.74,.18-1.09l-1.94,3.07-.91-1.27H7.82l-.91,1.27-1.94-3.07c.14,.35,.2,.72,.18,1.09l1.77,2.8Z"/></g><g><path class="cls-3" d="M34.79,28.87h-4.02l6.67-17.92c.83-2.46,2.2-3.99,5.07-3.99,3.19,0,4.78,1.88,4.78,4.69v12.72c0,.73,.45,1.21,1.08,1.21,.57,0,1.02-.35,1.21-.89l5.23-13.74c.83-2.46,2.2-3.99,5.07-3.99,3.19,0,4.78,1.88,4.78,4.69V28.87h-3.8V11.84c0-.77-.45-1.24-1.08-1.24-.54,0-.99,.38-1.18,.92l-5.23,13.74c-.83,2.46-2.23,3.99-5.1,3.99-3.16,0-4.75-1.88-4.75-4.72V11.84c0-.77-.48-1.24-1.12-1.24-.57,0-.96,.38-1.18,.92l-6.44,17.35Z"/><path class="cls-3" d="M80.47,12.03c4.21,0,5.87,2.36,5.87,5.55v7.91c0,2.42-.64,3.38-3.48,3.38h-7.88c-3.99,0-5.64-1.95-5.64-5.13s1.53-4.85,5.68-4.85h8v-1.28c0-1.31-.73-2.33-2.58-2.33h-10.08v-3.25h10.11Zm2.55,12.69v-3.16h-7.94c-1.79,0-2.42,.73-2.42,1.98s.67,2.04,2.36,2.04h7.08c.67,0,.92-.26,.92-.86Z"/><path class="cls-3" d="M102.57,12.03v3.25h-5.93c-1.5,0-2.17,.7-2.17,2.17v11.42h-3.38v-11.93c0-3.38,1.24-4.91,4.56-4.91h6.92Z"/><path class="cls-3" d="M109.27,4.73v14.29h1.56c2.68,0,3.22-.13,4.21-1.91l2.81-5.07h3.67l-2.93,5.29c-.83,1.5-1.63,2.42-3,3,1.59,.45,2.42,1.5,3.44,3.25l3.03,5.29h-3.79l-2.81-4.97c-.99-1.75-1.66-2.04-4.62-2.04h-1.56v7.02h-3.38V4.73h3.38Z"/><path class="cls-3" d="M134.34,7.34v14.06c0,2.07,1.02,3.7,4.4,3.7h8.36v3.76h-8.58c-5.71,0-7.94-3.12-7.94-7.43V7.34h3.76Z"/></g></g></svg>